{"accessors" : [{"bufferView" : 0, "byteOffset" : 0, "componentType" : 5125, "count" : 119994, "type" : "SCALAR", "max" : [98757], "min" : [0]}, {"bufferView" : 1, "byteOffset" : 0, "componentType" : 5126, "count" : 98758, "type" : "VEC3", "max" : [25.34433364868164, 25.39997673034668, 41.29106521606445], "min" : [-2.4599999051133636E-06, -2.0920000679325312E-05, 0.000201810005819425], "name" : "POSITION"}], "asset" : {"generator" : "Aspose.3D 22.1", "version" : "2.0"}, "buffers" : [{"uri" : "data:application/octet-stream;base64,", "byteLength" : 1919912}], "bufferViews" : [{"buffer" : 0, "byteOffset" : 0, "byteLength" : 479976, "target" : 34963}, {"buffer" : 0, "byteOffset" : 479980, "byteLength" : 1439928, "byteStride" : 12, "target" : 34962}], "meshes" : [{"primitives" : [{"attributes" : {"POSITION" : 1}, "indices" : 0, "mode" : 4}], "name" : ""}], "nodes" : [{"mesh" : 0, "name" : "Group45840"}], "scene" : 0, "scenes" : [{"nodes" : [0]}]}